<svg width="80" height="80" viewBox="0 0 80 80" fill="none" xmlns="http://www.w3.org/2000/svg">
<path d="M46.6667 30V16.6667C46.6667 14.0145 45.6131 11.471 43.7377 9.5956C41.8624 7.72024 39.3188 6.66667 36.6667 6.66667L23.3333 36.6667V73.3333H60.9333C62.5411 73.3515 64.1013 72.788 65.3264 71.7467C66.5515 70.7054 67.3589 69.2564 67.6 67.6667L72.2 37.6667C72.345 36.7112 72.2806 35.7356 72.0111 34.8075C71.7417 33.8794 71.2737 33.021 70.6395 32.2917C70.0054 31.5625 69.2203 30.9798 68.3386 30.5841C67.4569 30.1884 66.4997 29.9891 65.5333 30H46.6667Z" stroke="#363636" stroke-width="6" stroke-linecap="round" stroke-linejoin="round"/>
<path d="M23.3333 73.3333H13.3333C11.5652 73.3333 9.86954 72.631 8.61929 71.3807C7.36905 70.1305 6.66667 68.4348 6.66667 66.6667V43.3333C6.66667 41.5652 7.36905 39.8695 8.61929 38.6193C9.86954 37.3691 11.5652 36.6667 13.3333 36.6667H23.3333" stroke="#363636" stroke-width="6" stroke-linecap="round" stroke-linejoin="round"/>
</svg>
