<svg width="89" height="91" viewBox="0 0 89 91" fill="none" xmlns="http://www.w3.org/2000/svg">
<path d="M54.261 31.6522V13.5652C54.261 9.96752 52.8318 6.51715 50.2878 3.97317C47.7438 1.42919 44.2935 0 40.6957 0L22.6087 40.6957V90.435H73.6141C75.795 90.4596 77.9114 89.6952 79.5733 88.2827C81.2352 86.8701 82.3306 84.9045 82.6576 82.748L88.8976 42.0523C89.0943 40.7561 89.0069 39.4327 88.6414 38.1737C88.2759 36.9148 87.641 35.7503 86.7808 34.761C85.9205 33.7717 84.8555 32.9813 83.6595 32.4445C82.4634 31.9077 81.165 31.6374 79.8541 31.6522H54.261Z" fill="#7C66FF"/>
<path d="M7.2 90H18V41H7.2C5.29044 41 3.45909 41.9386 2.10883 43.6094C0.758569 45.2802 0 47.5463 0 49.9091V81.0909C0 83.4538 0.758569 85.7198 2.10883 87.3906C3.45909 89.0614 5.29044 90 7.2 90Z" fill="#7C66FF"/>
</svg>
